<svg xmlns="http://www.w3.org/2000/svg" viewBox="0 0 64 64" fill="none">
  <!-- Líneas externas -->
  <line x1="32" y1="5"  x2="11" y2="35" stroke="#8a6448" stroke-width="3" stroke-linecap="round"/>
  <line x1="32" y1="5"  x2="53" y2="35" stroke="#8a6448" stroke-width="3" stroke-linecap="round"/>
  <line x1="11" y1="35" x2="32" y2="45" stroke="#8a6448" stroke-width="3" stroke-linecap="round"/>
  <line x1="53" y1="35" x2="32" y2="45" stroke="#8a6448" stroke-width="3" stroke-linecap="round"/>

  <!-- Líneas internas -->
  <line x1="32" y1="5"  x2="32" y2="29" stroke="#8a6448" stroke-width="3" stroke-linecap="round"/>
  <line x1="11" y1="35" x2="32" y2="29" stroke="#8a6448" stroke-width="3" stroke-linecap="round"/>
  <line x1="53" y1="35" x2="32" y2="29" stroke="#8a6448" stroke-width="3" stroke-linecap="round"/>

  <!-- Llama central -->
  <path d="M 32,22 C 29,26 28.3,29.8 32,32.5 C 35.7,29.8 35,26 32,22 Z" fill="#8a6448"/>
  <path d="M 32,23.3 C 30.2,26.3 29.7,28.8 32,30.7 C 34.3,28.8 33.8,26.3 32,23.3 Z" fill="#c4a882"/>

  <!-- Nodos -->
  <circle cx="32" cy="5"  r="3" fill="#8a6448"/>
  <circle cx="11" cy="35" r="3" fill="#8a6448"/>
  <circle cx="53" cy="35" r="3" fill="#8a6448"/>
  <circle cx="32" cy="45" r="3" fill="#8a6448"/>
</svg>
