<svg xmlns="http://www.w3.org/2000/svg" viewBox="0 0 64 64" fill="none">
  <!-- Fondo circular -->
  <circle cx="32" cy="32" r="32" fill="#f6f1ea"/>

  <!-- Líneas externas -->
  <line x1="32" y1="10"  x2="18" y2="32" stroke="#8a6448" stroke-width="2.2" stroke-linecap="round"/>
  <line x1="32" y1="10"  x2="46" y2="32" stroke="#8a6448" stroke-width="2.2" stroke-linecap="round"/>
  <line x1="18" y1="32" x2="32" y2="37" stroke="#8a6448" stroke-width="2.2" stroke-linecap="round"/>
  <line x1="46" y1="32" x2="32" y2="37" stroke="#8a6448" stroke-width="2.2" stroke-linecap="round"/>

  <!-- Líneas internas -->
  <line x1="32" y1="10"  x2="32" y2="27" stroke="#8a6448" stroke-width="2.2" stroke-linecap="round"/>
  <line x1="18" y1="32" x2="32" y2="27" stroke="#8a6448" stroke-width="2.2" stroke-linecap="round"/>
  <line x1="46" y1="32" x2="32" y2="27" stroke="#8a6448" stroke-width="2.2" stroke-linecap="round"/>

  <!-- Llama central -->
  <path d="M 32,22 C 29.5,25.5 29,28.5 32,30.5 C 35,28.5 34.5,25.5 32,22 Z" fill="#8a6448"/>
  <path d="M 32,23 C 30.5,26 30,28 32,29.5 C 34,28 33.5,26 32,23 Z" fill="#c4a882"/>

  <!-- Nodos -->
  <circle cx="32" cy="10"  r="2.2" fill="#8a6448"/>
  <circle cx="18" cy="32" r="2.2" fill="#8a6448"/>
  <circle cx="46" cy="32" r="2.2" fill="#8a6448"/>
  <circle cx="32" cy="37" r="2.2" fill="#8a6448"/>
</svg>
